<?xml version="1.0"?>
<svg xmlns="http://www.w3.org/2000/svg" xmlns:xlink="http://www.w3.org/1999/xlink" version="1.1" id="Layer_1" x="0px" y="0px" viewBox="0 0 512 512" style="enable-background:new 0 0 512 512;" xml:space="preserve" data-ember-extension="1" width="512px" height="512px" class=""><g><g>
	<g>
		<path d="M504.625,236.313c-38.813-38.917-114.667-109.094-159.979-151.01l-13.771-12.74C324.938,67.042,317.271,64,309.333,64    c-17.646,0-32,14.354-32,32v74.667H42.667C19.146,170.667,0,189.802,0,213.333v85.333c0,23.531,19.146,42.667,42.667,42.667    h234.667V416c0,17.646,14.354,32,32,32c7.938,0,15.604-3.042,21.542-8.563l13.771-12.74    c45.313-41.917,121.167-112.094,159.979-151.021C509.375,270.885,512,263.906,512,256S509.375,241.115,504.625,236.313z" data-original="#000000" class="active-path" data-old_color="#FDFCFC" fill="#FFFFFF"/>
	</g>
</g></g> </svg>
